<svg xmlns="http://www.w3.org/2000/svg" xmlns:xlink="http://www.w3.org/1999/xlink" width="500" zoomAndPan="magnify" viewBox="0 0 375 374.999991" height="500" preserveAspectRatio="xMidYMid meet" version="1.0"><defs><g/></defs><g fill="#000000" fill-opacity="1"><g transform="translate(76.111903, 244.105263)"><g><path d="M 59.125 -110.3125 C 65.25 -110.3125 71.304688 -109.613281 77.296875 -108.21875 C 83.285156 -106.820312 87.742188 -105.429688 90.671875 -104.046875 L 95.0625 -101.953125 L 82.9375 -77.71875 C 74.582031 -82.175781 66.644531 -84.40625 59.125 -84.40625 C 54.945312 -84.40625 51.988281 -83.953125 50.25 -83.046875 C 48.507812 -82.140625 47.640625 -80.429688 47.640625 -77.921875 C 47.640625 -77.367188 47.707031 -76.8125 47.84375 -76.25 C 47.976562 -75.695312 48.253906 -75.175781 48.671875 -74.6875 C 49.097656 -74.195312 49.484375 -73.773438 49.828125 -73.421875 C 50.171875 -73.078125 50.757812 -72.695312 51.59375 -72.28125 C 52.4375 -71.863281 53.097656 -71.550781 53.578125 -71.34375 C 54.066406 -71.132812 54.867188 -70.820312 55.984375 -70.40625 C 57.097656 -69.988281 57.929688 -69.675781 58.484375 -69.46875 C 59.046875 -69.257812 59.988281 -68.945312 61.3125 -68.53125 C 62.632812 -68.113281 63.644531 -67.832031 64.34375 -67.6875 C 68.664062 -66.4375 72.425781 -65.046875 75.625 -63.515625 C 78.832031 -61.984375 82.210938 -59.894531 85.765625 -57.25 C 89.316406 -54.601562 92.066406 -51.257812 94.015625 -47.21875 C 95.960938 -43.175781 96.9375 -38.578125 96.9375 -33.421875 C 96.9375 -9.046875 80.015625 3.140625 46.171875 3.140625 C 38.515625 3.140625 31.238281 1.957031 24.34375 -0.40625 C 17.445312 -2.78125 12.46875 -5.148438 9.40625 -7.515625 L 4.8125 -11.28125 L 19.84375 -36.5625 C 20.957031 -35.582031 22.421875 -34.429688 24.234375 -33.109375 C 26.046875 -31.785156 29.316406 -29.972656 34.046875 -27.671875 C 38.785156 -25.378906 42.894531 -24.234375 46.375 -24.234375 C 54.039062 -24.234375 57.875 -26.8125 57.875 -31.96875 C 57.875 -34.332031 56.894531 -36.175781 54.9375 -37.5 C 52.988281 -38.820312 49.679688 -40.316406 45.015625 -41.984375 C 40.359375 -43.660156 36.703125 -45.195312 34.046875 -46.59375 C 27.367188 -50.070312 22.078125 -54.003906 18.171875 -58.390625 C 14.273438 -62.773438 12.328125 -68.59375 12.328125 -75.84375 C 12.328125 -86.707031 16.539062 -95.164062 24.96875 -101.21875 C 33.394531 -107.28125 44.78125 -110.3125 59.125 -110.3125 Z M 59.125 -110.3125 "/></g></g></g><g fill="#000000" fill-opacity="1"><g transform="translate(161.119086, 244.105263)"><g><path d="M 22.671875 -12.734375 C 10.765625 -23.328125 4.8125 -36.910156 4.8125 -53.484375 C 4.8125 -70.054688 11.007812 -83.671875 23.40625 -94.328125 C 35.800781 -104.984375 51.117188 -110.3125 69.359375 -110.3125 C 87.328125 -110.3125 102.472656 -104.945312 114.796875 -94.21875 C 127.128906 -83.5 133.296875 -69.921875 133.296875 -53.484375 C 133.296875 -37.046875 127.269531 -23.5 115.21875 -12.84375 C 103.175781 -2.1875 87.890625 3.140625 69.359375 3.140625 C 50.140625 3.140625 34.578125 -2.148438 22.671875 -12.734375 Z M 51.28125 -71.65625 C 46.476562 -66.925781 44.078125 -60.867188 44.078125 -53.484375 C 44.078125 -46.097656 46.375 -40.070312 50.96875 -35.40625 C 55.570312 -30.738281 61.632812 -28.40625 69.15625 -28.40625 C 76.394531 -28.40625 82.347656 -30.773438 87.015625 -35.515625 C 91.679688 -40.253906 94.015625 -46.242188 94.015625 -53.484375 C 94.015625 -60.867188 91.609375 -66.925781 86.796875 -71.65625 C 81.992188 -76.394531 76.113281 -78.765625 69.15625 -78.765625 C 62.050781 -78.765625 56.09375 -76.394531 51.28125 -71.65625 Z M 51.28125 -71.65625 "/></g></g></g><path stroke-linecap="butt" transform="matrix(2.925229, 0, 0, 2.925229, 2.260326, 345.747692)" fill="none" stroke-linejoin="miter" d="M 0.000475958 5.000397 L 84.432958 5.000397 " stroke="#000000" stroke-width="10" stroke-opacity="1" stroke-miterlimit="4"/><path stroke-linecap="butt" transform="matrix(0, 2.925229, -2.925229, 0, 31.497626, 125.015001)" fill="none" stroke-linejoin="miter" d="M 0.000213457 5.000132 L 82.463031 5.000132 " stroke="#000000" stroke-width="10" stroke-opacity="1" stroke-miterlimit="4"/><path stroke-linecap="butt" transform="matrix(-2.925229, 0, 0, -2.925229, 372.737793, 29.248376)" fill="none" stroke-linejoin="miter" d="M -0.00016697 5.000388 L 84.43365 5.000388 " stroke="#000000" stroke-width="10" stroke-opacity="1" stroke-miterlimit="4"/><path stroke-linecap="butt" transform="matrix(0, -2.925229, 2.925229, 0, 343.500481, 249.981077)" fill="none" stroke-linejoin="miter" d="M 0.000207996 4.999443 L 82.463026 4.999443 " stroke="#000000" stroke-width="10" stroke-opacity="1" stroke-miterlimit="4"/></svg>