<?xml version="1.0" encoding="utf-8"?>
<!-- Generator: Adobe Illustrator 26.3.1, SVG Export Plug-In . SVG Version: 6.00 Build 0)  -->
<svg version="1.1" id="Слой_1" xmlns="http://www.w3.org/2000/svg" xmlns:xlink="http://www.w3.org/1999/xlink" x="0px" y="0px"
	 viewBox="0 0 500 242" style="enable-background:new 0 0 500 242;" xml:space="preserve">
<style type="text/css">
	.st0{fill:none;stroke:#000000;stroke-width:17.2601;stroke-miterlimit:6.9041;}
</style>
<g>
	<g transform="translate(47.544987, 208.51436)">
		<g>
			<path d="M27.6-66.3c-5.9-6.5-8.9-14.4-8.9-23.7c0-9.4,3-17.3,8.9-23.8c5.9-6.5,13.4-9.8,22.6-9.8c8.4,0,15.3,2.6,20.7,7.9v-6
				h21.8v63.2H71.1v-7.1h-0.2c-5.4,6-12.3,9-20.7,9C41-56.6,33.5-59.9,27.6-66.3z M46.1-100.8c-2.8,2.8-4.2,6.4-4.2,10.7
				c0,4.3,1.4,7.9,4.1,10.6c2.7,2.8,6.3,4.1,10.8,4.1c4.3,0,7.8-1.4,10.5-4.2c2.8-2.8,4.1-6.3,4.1-10.6c0-4.3-1.4-7.9-4.3-10.7
				c-2.8-2.8-6.3-4.2-10.4-4.2C52.5-105,48.9-103.6,46.1-100.8z"/>
		</g>
	</g>
</g>
<g>
	<g transform="translate(102.818403, 208.51436)">
		<g>
			<path d="M41.7-58.5v-63.2h21.8v6.6h0.2c5.7-5.7,11.7-8.5,18.1-8.5c3.1,0,6.2,0.4,9.3,1.2c3.1,0.8,6,2.1,8.9,3.8
				c2.8,1.7,5.1,4.2,6.9,7.3c1.8,3.2,2.6,6.8,2.6,11v41.7H87.8v-35.8c0-3.3-1.1-6.2-3.1-8.6c-2.1-2.5-4.8-3.7-8.2-3.7
				c-3.3,0-6.3,1.3-9,3.8c-2.7,2.5-4,5.4-4,8.5v35.8H41.7z"/>
		</g>
	</g>
</g>
<g>
	<g transform="translate(156.058263, 208.51436)">
		<g>
			<path d="M63.7-66.3c-5.9-6.5-8.9-14.4-8.9-23.7c0-9.4,3-17.3,8.9-23.8c5.9-6.5,13.4-9.8,22.6-9.8c8.4,0,15.3,2.6,20.7,7.9v-48.8
				h21.8v106h-21.6v-7.1H107c-5.4,6-12.3,9-20.7,9C77.2-56.6,69.6-59.9,63.7-66.3z M82.3-100.8C79.4-98,78-94.4,78-90
				c0,4.3,1.4,7.9,4.1,10.6c2.7,2.8,6.3,4.1,10.8,4.1c4.3,0,7.8-1.4,10.5-4.2c2.8-2.8,4.1-6.3,4.1-10.6c0-4.3-1.4-7.9-4.3-10.7
				c-2.8-2.8-6.3-4.2-10.4-4.2C88.6-105,85.1-103.6,82.3-100.8z"/>
		</g>
	</g>
</g>
<g>
	<g transform="translate(211.33168, 208.51436)">
	</g>
</g>
<g>
	<g transform="translate(228.707042, 208.51436)">
		<g>
			<path d="M111.1-123.6c3.6,0,7.2,0.4,10.7,1.2c3.5,0.8,6.2,1.6,7.9,2.5l2.6,1.2l-7.1,14.3c-4.9-2.6-9.6-3.9-14-3.9
				c-2.5,0-4.2,0.3-5.2,0.8c-1,0.5-1.5,1.5-1.5,3c0,0.3,0,0.7,0.1,1c0.1,0.3,0.2,0.6,0.5,0.9c0.2,0.3,0.5,0.5,0.7,0.7
				c0.2,0.2,0.6,0.4,1,0.7c0.5,0.2,0.9,0.4,1.2,0.5c0.3,0.1,0.8,0.3,1.4,0.6c0.7,0.2,1.2,0.4,1.5,0.6c0.3,0.1,0.9,0.3,1.7,0.5
				c0.8,0.2,1.4,0.4,1.8,0.5c2.6,0.7,4.8,1.6,6.7,2.5c1.9,0.9,3.9,2.1,6,3.7c2.1,1.6,3.7,3.5,4.9,5.9c1.2,2.4,1.7,5.1,1.7,8.1
				c0,14.4-10,21.6-29.9,21.6c-4.5,0-8.8-0.7-12.9-2.1c-4.1-1.4-7-2.8-8.8-4.2l-2.7-2.2l8.9-14.9c0.7,0.6,1.5,1.2,2.6,2
				c1.1,0.8,3,1.8,5.8,3.2c2.8,1.4,5.2,2,7.3,2c4.5,0,6.8-1.5,6.8-4.6c0-1.4-0.6-2.5-1.7-3.3c-1.2-0.8-3.1-1.7-5.9-2.6
				c-2.8-1-4.9-1.9-6.5-2.7c-3.9-2.1-7.1-4.4-9.4-7c-2.3-2.6-3.4-6-3.4-10.3c0-6.4,2.5-11.4,7.5-15
				C95.9-121.8,102.7-123.6,111.1-123.6z"/>
		</g>
	</g>
</g>
<g>
	<g transform="translate(266.325512, 208.51436)">
		<g>
			<path d="M102.2-66c-7-6.2-10.5-14.3-10.5-24c0-9.8,3.7-17.8,11-24.1c7.3-6.3,16.4-9.4,27.1-9.4c10.6,0,19.5,3.2,26.8,9.5
				c7.3,6.3,10.9,14.3,10.9,24c0,9.7-3.6,17.7-10.7,24c-7.1,6.3-16.1,9.4-27.1,9.4C118.4-56.6,109.2-59.8,102.2-66z M119-100.8
				c-2.8,2.8-4.2,6.4-4.2,10.7c0,4.3,1.4,7.9,4.1,10.6c2.7,2.8,6.3,4.1,10.8,4.1c4.3,0,7.8-1.4,10.5-4.2c2.8-2.8,4.1-6.3,4.1-10.6
				c0-4.3-1.4-7.9-4.3-10.7c-2.8-2.8-6.3-4.2-10.4-4.2C125.4-105,121.9-103.6,119-100.8z"/>
		</g>
	</g>
</g>
<path class="st0" d="M26.9,224h145.7"/>
<path class="st0" d="M35.6,85.1v142.3"/>
<path class="st0" d="M470.9,20H325.2"/>
<path class="st0" d="M462.3,158.9V16.5"/>
</svg>
